<svg xmlns="http://www.w3.org/2000/svg" viewBox="0 0 1024 1024">
<defs><linearGradient id="g" x1="0" y1="0" x2="0.35" y2="1"><stop offset="0" stop-color="#FF9A4D"/><stop offset="1" stop-color="#E8436A"/></linearGradient>
<radialGradient id="h" cx="0.3" cy="0.15" r="0.9"><stop offset="0" stop-color="#fff" stop-opacity=".28"/><stop offset=".6" stop-color="#fff" stop-opacity="0"/></radialGradient>
<linearGradient id="f" x1="0" y1="0" x2="0" y2="1"><stop offset="0" stop-color="#EE5A6E"/><stop offset="1" stop-color="#D93D5E"/></linearGradient>
<clipPath id="in"><path d="M512 214c14 0 28 5 39 14l238 200c16 13 25 33 25 54v268c0 39-31 70-70 70H280c-39 0-70-31-70-70V482c0-21 9-41 25-54l238-200c11-9 25-14 39-14z"/></clipPath></defs>
<g id="art">
<rect width="1024" height="1024" fill="url(#g)"/><rect width="1024" height="1024" fill="url(#h)"/>
<rect x="662" y="262" width="66" height="130" rx="18" fill="#fff"/>
<path d="M512 214c14 0 28 5 39 14l238 200c16 13 25 33 25 54v268c0 39-31 70-70 70H280c-39 0-70-31-70-70V482c0-21 9-41 25-54l238-200c11-9 25-14 39-14z" fill="#fff"/>
<path d="M512 424c-30-21-48-37-48-57 0-14 11-24 24-24 10 0 19 6 24 15 5-9 14-15 24-15 13 0 24 10 24 24 0 20-18 36-48 57z" fill="#F07A55"/>
<g clip-path="url(#in)">
<g fill="url(#f)">
<circle cx="404" cy="548" r="60"/><circle cx="620" cy="548" r="60"/>
<path d="M314 830v-130c0-50 40-90 90-90s90 40 90 90v130z"/><path d="M530 830v-130c0-50 40-90 90-90s90 40 90 90v130z"/>
</g>
<g fill="#F07A55" stroke="#fff" stroke-width="14">
<circle cx="512" cy="636" r="44"/>
<path d="M446 840v-98c0-36 30-64 66-64s66 28 66 64v98z"/>
</g>
</g>
</g>
</svg>
